<svg width="64" height="64" viewBox="0 0 64 64" fill="none" xmlns="http://www.w3.org/2000/svg">
<rect width="64" height="64" rx="32" fill="#E1E7ED"/>
<path d="M33.5826 26.2625L36.6576 24.75C37.0326 24.5625 37.1326 24.075 36.8451 23.775C35.7326 22.55 34.6076 21.525 33.7076 20.75C33.2951 20.4 32.6826 20.6875 32.6826 21.225V25.7C32.6826 26.1625 33.1701 26.4625 33.5826 26.2625Z" fill="#1AAB7B"/>
<path d="M32.6826 41.6749V43.7374C32.6826 44.1124 33.0201 44.4249 33.3951 44.3624C36.8076 43.7999 39.6576 41.5124 41.0076 38.4374C41.2451 37.9124 40.6701 37.3874 40.1451 37.6374L33.0326 41.1249C32.8201 41.2249 32.6826 41.4374 32.6826 41.6749Z" fill="#1AAB7B"/>
<path d="M30.8077 21.2C30.8077 20.6625 30.1952 20.375 29.7827 20.7125C26.8327 23.1875 21.5952 28.4 21.6202 34.375C21.6202 39.4 25.2952 43.5625 30.0952 44.3625C30.4702 44.425 30.8077 44.1125 30.8077 43.7375V21.2Z" fill="#1AAB7B"/>
<path d="M33.5449 32.5876L40.1574 29.8126C40.4949 29.6626 40.6574 29.2751 40.4949 28.9501C40.0324 28.0376 39.4949 27.1501 38.9074 26.3251C38.7324 26.0751 38.4074 26.0001 38.1324 26.1251L33.0199 28.6126C32.8074 28.7126 32.6699 28.9376 32.6699 29.1751V32.0126C32.6824 32.4501 33.1324 32.7626 33.5449 32.5876Z" fill="#1AAB7B"/>
<path d="M41.5326 34.8875C41.7326 34.7875 41.8576 34.6 41.8576 34.3875C41.8576 33.5875 41.7576 32.8 41.5826 32.025C41.4951 31.65 41.0826 31.45 40.7326 31.6L33.0576 34.875C32.8326 34.975 32.6826 35.2 32.6826 35.45V38.2C32.6826 38.6625 33.1701 38.9625 33.5826 38.7625L40.9576 35.175L41.5326 34.8875Z" fill="#1AAB7B"/>
</svg>
