<svg width="64" height="64" viewBox="0 0 64 64" fill="none" xmlns="http://www.w3.org/2000/svg">
<rect width="64" height="64" rx="32" fill="#E1E7ED"/>
<path d="M41.1701 25.175L37.3326 21.3375C36.1576 20.1625 34.5701 19.5 32.9076 19.5H26.7451C22.9951 19.5 20.4951 22 20.4951 25.75V38.25C20.4951 42 22.9951 44.5 26.7451 44.5H36.7451C40.4951 44.5 42.9951 42 42.9951 38.25V29.5875C42.9951 27.925 42.3326 26.3375 41.1701 25.175ZM29.2826 38.8375C29.6451 39.2 29.6451 39.8 29.2826 40.1625C29.0951 40.35 28.8576 40.4375 28.6201 40.4375C28.3826 40.4375 28.1451 40.35 27.9576 40.1625L25.4576 37.6625C25.0951 37.3 25.0951 36.7 25.4576 36.3375L27.9576 33.8375C28.3201 33.475 28.9201 33.475 29.2826 33.8375C29.6451 34.2 29.6451 34.8 29.2826 35.1625L27.4451 37L29.2826 38.8375ZM38.0326 37.6625L35.5326 40.1625C35.3451 40.35 35.1076 40.4375 34.8701 40.4375C34.6326 40.4375 34.3951 40.35 34.2076 40.1625C33.8451 39.8 33.8451 39.2 34.2076 38.8375L36.0451 37L34.2076 35.1625C33.8451 34.8 33.8451 34.2 34.2076 33.8375C34.5701 33.475 35.1701 33.475 35.5326 33.8375L38.0326 36.3375C38.3951 36.7 38.3951 37.3 38.0326 37.6625Z" fill="#1AAB7B"/>
</svg>
