<svg width="64" height="64" viewBox="0 0 64 64" fill="none" xmlns="http://www.w3.org/2000/svg">
<rect width="64" height="64" rx="32" fill="#E1E7ED"/>
<path d="M43.045 33.6L41.895 32.475L32.2075 42.15L33.37 43.3125C34.345 44.2875 35.3575 44.775 36.3575 44.775C37.3575 44.775 38.37 44.2875 39.345 43.3125L43.045 39.6125C45.0325 37.6125 45.0325 35.6 43.045 33.6Z" fill="#1AAB7B"/>
<path d="M30.1078 20.6625C28.1453 18.7 26.0828 18.7 24.1203 20.6625L20.4078 24.3625C18.4578 26.325 18.4578 28.3875 20.4078 30.35L21.5578 31.5L31.2453 21.8125L30.1078 20.6625Z" fill="#1AAB7B"/>
<path d="M44.0074 21.925C42.3699 26.0125 38.6324 31.35 35.0699 34.8375C34.5574 31.6125 31.9824 29.0875 28.7324 28.6375C32.2324 25.0625 37.6074 21.275 41.7074 19.625C42.4324 19.35 43.1574 19.5625 43.6074 20.0125C44.0824 20.4875 44.3074 21.2 44.0074 21.925Z" fill="#1AAB7B"/>
<path d="M33.97 35.8625C33.72 36.075 33.47 36.2875 33.22 36.4875L30.9825 38.275C30.9825 38.2375 30.97 38.1875 30.97 38.1375C30.795 36.8 30.17 35.5625 29.1575 34.55C28.1325 33.525 26.8575 32.9 25.4575 32.725C25.42 32.725 25.37 32.7125 25.3325 32.7125L27.145 30.425C27.32 30.2 27.5075 29.9875 27.7075 29.7625L28.5575 29.875C31.245 30.25 33.4075 32.3625 33.8325 35.0375L33.97 35.8625Z" fill="#1AAB7B"/>
<path d="M29.7828 39.025C29.7828 40.4 29.2578 41.7125 28.2578 42.7C27.4953 43.475 26.4703 44 25.2203 44.15L22.1578 44.4875C20.4828 44.675 19.0453 43.2375 19.2328 41.55L19.5703 38.475C19.8703 35.7375 22.1578 33.9875 24.5828 33.9375C24.8203 33.925 25.0828 33.9375 25.3328 33.9625C26.3953 34.1 27.4203 34.5875 28.2828 35.4375C29.1203 36.275 29.5953 37.2625 29.7328 38.3C29.7578 38.55 29.7828 38.7875 29.7828 39.025Z" fill="#1AAB7B"/>
</svg>
