<svg width="64" height="64" viewBox="0 0 64 64" fill="none" xmlns="http://www.w3.org/2000/svg">
<rect width="64" height="64" rx="32" fill="#E1E7ED"/>
<path d="M36.9826 19.5H26.5076C21.9576 19.5 19.2451 22.2125 19.2451 26.7625V37.225C19.2451 41.7875 21.9576 44.5 26.5076 44.5H36.9701C41.5201 44.5 44.2326 41.7875 44.2326 37.2375V26.7625C44.2451 22.2125 41.5326 19.5 36.9826 19.5ZM29.1326 37.2375C29.1326 38.0375 28.4826 38.6875 27.6701 38.6875C26.8701 38.6875 26.2201 38.0375 26.2201 37.2375V33.1625C26.2201 32.3625 26.8701 31.7125 27.6701 31.7125C28.4826 31.7125 29.1326 32.3625 29.1326 33.1625V37.2375ZM37.2701 37.2375C37.2701 38.0375 36.6201 38.6875 35.8201 38.6875C35.0076 38.6875 34.3576 38.0375 34.3576 37.2375V26.7625C34.3576 25.9625 35.0076 25.3125 35.8201 25.3125C36.6201 25.3125 37.2701 25.9625 37.2701 26.7625V37.2375Z" fill="#1AAB7B"/>
</svg>
